<?xml version="1.0" encoding="UTF-8"?>
<svg width="14px" height="14px" viewBox="0 0 14 14" version="1.1" xmlns="http://www.w3.org/2000/svg" xmlns:xlink="http://www.w3.org/1999/xlink">
    <!-- Generator: Sketch 51.3 (57544) - http://www.bohemiancoding.com/sketch -->
    <title>Search Copy 2</title>
    <desc>Created with Sketch.</desc>
    <defs></defs>
    <g id="Recruiter" stroke="none" stroke-width="1" fill="none" fill-rule="evenodd">
        <g id="Recruiter-Dashboard" transform="translate(-1089.000000, -19.000000)" fill="#848FA6">
            <g id="Group-4">
                <g id="Search-Copy-2" transform="translate(1089.000000, 19.000000)">
                    <path d="M9.55678915,8.59119497 L8.95280007,8.59119497 L8.738728,8.38032018 C9.48798027,7.48995998 9.93906071,6.33405374 9.93906071,5.07661521 C9.93906071,2.27276158 7.7142402,0 4.96953036,0 C2.22482051,0 0,2.27276158 0,5.07661521 C0,7.88046884 2.22482051,10.1532304 4.96953036,10.1532304 C6.2004448,10.1532304 7.33196863,9.69242996 8.2035478,8.92703259 L8.40997445,9.14571755 L8.40997445,9.76272156 L12.2326901,13.66 L13.3718594,12.4962836 L9.55678915,8.59119497 L9.55678915,8.59119497 Z M4.96953036,8.59119497 C3.06581796,8.59119497 1.52908626,7.02134934 1.52908626,5.07661521 C1.52908626,3.13188107 3.06581796,1.56203545 4.96953036,1.56203545 C6.87324275,1.56203545 8.40997445,3.13188107 8.40997445,5.07661521 C8.40997445,7.02134934 6.87324275,8.59119497 4.96953036,8.59119497 L4.96953036,8.59119497 Z" id="Shape"></path>
                </g>
            </g>
        </g>
    </g>
</svg>