<?xml version="1.0" encoding="UTF-8"?>
<svg width="96px" height="25px" viewBox="0 0 96 25" version="1.1" xmlns="http://www.w3.org/2000/svg" xmlns:xlink="http://www.w3.org/1999/xlink">
    <!-- Generator: sketchtool 51.3 (57544) - http://www.bohemiancoding.com/sketch -->
    <title>06DD15AF-65A4-451B-B6F1-D16BADA11FC3</title>
    <desc>Created with sketchtool.</desc>
    <defs></defs>
    <g id="Common" stroke="none" stroke-width="1" fill="none" fill-rule="evenodd">
        <g id="Home" transform="translate(-72.000000, -25.000000)" fill="#1F61FF">
            <path d="M85.36875,43.03125 C85.36875,42.1458289 85.0562532,41.4661482 84.43125,40.9921875 C83.8062469,40.5182268 82.6812582,40.0182318 81.05625,39.4921875 C79.4312419,38.9661432 78.1447964,38.4479192 77.196875,37.9375 C74.6135288,36.5416597 73.321875,34.6614702 73.321875,32.296875 C73.321875,31.0677022 73.6682257,29.971359 74.3609375,29.0078125 C75.0536493,28.044266 76.0484311,27.2916694 77.3453125,26.75 C78.642194,26.2083306 80.0979086,25.9375 81.7125,25.9375 C83.3375082,25.9375 84.7854103,26.2317679 86.05625,26.8203125 C87.3270897,27.4088571 88.314059,28.239578 89.0171875,29.3125 C89.7203161,30.385422 90.071875,31.6041598 90.071875,32.96875 L85.384375,32.96875 C85.384375,31.9270781 85.0562533,31.1171904 84.4,30.5390625 C83.7437468,29.9609346 82.821881,29.671875 81.634375,29.671875 C80.488536,29.671875 79.5979199,29.9140601 78.9625,30.3984375 C78.3270802,30.8828149 78.009375,31.5208294 78.009375,32.3125 C78.009375,33.052087 78.3817671,33.6718725 79.1265625,34.171875 C79.8713579,34.6718775 80.9677011,35.1406228 82.415625,35.578125 C85.082305,36.3802123 87.0249939,37.3749941 88.24375,38.5625 C89.4625061,39.7500059 90.071875,41.2291578 90.071875,43 C90.071875,44.9687598 89.3270908,46.5130152 87.8375,47.6328125 C86.3479093,48.7526098 84.342721,49.3125 81.821875,49.3125 C80.0718663,49.3125 78.4781322,48.9921907 77.040625,48.3515625 C75.6031178,47.7109343 74.5067746,46.8333389 73.7515625,45.71875 C72.9963504,44.6041611 72.61875,43.3125073 72.61875,41.84375 L77.321875,41.84375 C77.321875,44.3541792 78.82186,45.609375 81.821875,45.609375 C82.9364639,45.609375 83.8062469,45.3828148 84.43125,44.9296875 C85.0562532,44.4765602 85.36875,43.8437541 85.36875,43.03125 Z M98.2875,42.21875 L96.6625,43.84375 L96.6625,49 L92.146875,49 L92.146875,25 L96.6625,25 L96.6625,38.296875 L97.5375,37.171875 L101.865625,32.09375 L107.2875,32.09375 L101.178125,39.140625 L107.81875,49 L102.63125,49 L98.2875,42.21875 Z M107.7375,40.390625 C107.7375,38.7135333 108.060413,37.2187566 108.70625,35.90625 C109.352087,34.5937434 110.281765,33.5781286 111.495313,32.859375 C112.70886,32.1406214 114.1177,31.78125 115.721875,31.78125 C118.003136,31.78125 119.865097,32.4791597 121.307813,33.875 C122.750528,35.2708403 123.555208,37.1666547 123.721875,39.5625 L123.753125,40.71875 C123.753125,43.312513 123.029174,45.3932213 121.58125,46.9609375 C120.133326,48.5286537 118.190637,49.3125 115.753125,49.3125 C113.315613,49.3125 111.37032,48.5312578 109.917188,46.96875 C108.464055,45.4062422 107.7375,43.2812634 107.7375,40.59375 L107.7375,40.390625 Z M112.253125,40.71875 C112.253125,42.3229247 112.555205,43.5494749 113.159375,44.3984375 C113.763545,45.2474001 114.628119,45.671875 115.753125,45.671875 C116.84688,45.671875 117.701039,45.2526084 118.315625,44.4140625 C118.930211,43.5755166 119.2375,42.2343842 119.2375,40.390625 C119.2375,38.8177005 118.930211,37.5989627 118.315625,36.734375 C117.701039,35.8697873 116.836464,35.4375 115.721875,35.4375 C114.617703,35.4375 113.763545,35.8671832 113.159375,36.7265625 C112.555205,37.5859418 112.253125,38.9166577 112.253125,40.71875 Z M135.234375,36.328125 C134.619789,36.2447912 134.078127,36.203125 133.609375,36.203125 C131.901033,36.203125 130.781253,36.7812442 130.25,37.9375 L130.25,49 L125.734375,49 L125.734375,32.09375 L130,32.09375 L130.125,34.109375 C131.031255,32.5572839 132.28645,31.78125 133.890625,31.78125 C134.390627,31.78125 134.859373,31.8489577 135.296875,31.984375 L135.234375,36.328125 Z M146.73125,47.28125 C145.616661,48.6354234 144.07501,49.3125 142.10625,49.3125 C140.293741,49.3125 138.910942,48.7916719 137.957812,47.75 C137.004683,46.7083281 136.517708,45.1823017 136.496875,43.171875 L136.496875,32.09375 L141.0125,32.09375 L141.0125,43.015625 C141.0125,44.7760505 141.814575,45.65625 143.41875,45.65625 C144.950008,45.65625 146.00208,45.1250053 146.575,44.0625 L146.575,32.09375 L151.10625,32.09375 L151.10625,49 L146.85625,49 L146.73125,47.28125 Z M158.9,45.359375 L167.165625,45.359375 L167.165625,49 L153.134375,49 L153.134375,46.25 L161.0875,35.75 L153.36875,35.75 L153.36875,32.09375 L166.915625,32.09375 L166.915625,34.765625 L158.9,45.359375 Z" id="Skoruz"></path>
        </g>
    </g>
</svg>